<?xml version="1.0" encoding="UTF-8" standalone="no"?><!DOCTYPE svg PUBLIC "-//W3C//DTD SVG 1.1//EN" "http://www.w3.org/Graphics/SVG/1.1/DTD/svg11.dtd"><svg width="100%" height="100%" viewBox="0 0 2173 537" version="1.1" xmlns="http://www.w3.org/2000/svg" xmlns:xlink="http://www.w3.org/1999/xlink" xml:space="preserve" xmlns:serif="http://www.serif.com/" style="fill-rule:evenodd;clip-rule:evenodd;stroke-linejoin:round;stroke-miterlimit:2;"><g><g><path d="M527.196,356.983l10.596,30.179c-20.888,7.938 -42.771,9.976 -65.654,6.105c-22.884,-3.867 -43.205,-13.6 -60.946,-29.179c-25.604,-22.488 -39.542,-51.213 -41.8,-86.184c-2.271,-34.966 7.841,-65.254 30.329,-90.858c22.996,-26.184 51.85,-40.263 86.567,-42.238c34.712,-1.979 64.87,8.279 90.475,30.767c16.287,14.308 28.054,31.867 35.304,52.654c7.246,20.796 9.3,40.896 6.171,60.3l-216.03,0.413c4.038,20.046 14.059,37.087 30.063,51.141c13.379,11.75 28.462,19.08 45.25,21.967c16.787,2.896 33.346,1.204 49.675,-5.067Zm-126.183,-99.237l185.545,-0.908c-3.125,-22.846 -13.416,-41.93 -30.87,-57.263c-19.788,-17.379 -42.375,-25.237 -67.784,-23.592c-25.408,1.646 -46.8,12.363 -64.175,32.142c-12.529,14.258 -20.1,30.8 -22.716,49.621Z" style="fill:#8f022c;fill-rule:nonzero;"/><path d="M1263.17,356.983l10.596,30.179c-20.888,7.938 -42.771,9.976 -65.654,6.105c-22.884,-3.867 -43.204,-13.6 -60.946,-29.179c-25.604,-22.488 -39.542,-51.213 -41.8,-86.184c-2.271,-34.966 7.842,-65.254 30.329,-90.858c22.996,-26.184 51.85,-40.263 86.567,-42.238c34.712,-1.979 64.87,8.279 90.475,30.767c16.287,14.308 28.054,31.867 35.304,52.654c7.246,20.796 9.3,40.896 6.171,60.3l-216.029,0.413c4.037,20.046 14.058,37.087 30.062,51.141c13.379,11.75 28.463,19.08 45.25,21.967c16.787,2.896 33.346,1.204 49.675,-5.067Zm-126.183,-99.237l185.546,-0.908c-3.125,-22.846 -13.417,-41.93 -30.871,-57.263c-19.788,-17.379 -42.375,-25.237 -67.784,-23.592c-25.408,1.646 -46.8,12.363 -64.175,32.142c-12.529,14.258 -20.1,30.8 -22.716,49.621Z" style="fill:#8f022c;fill-rule:nonzero;"/><path d="M816.838,334.796c7.741,15.492 20.516,23.233 38.333,23.233c11.996,0 22.071,-4.066 30.2,-12.196c8.133,-8.129 12.196,-18.195 12.196,-30.2c-0,-9.675 -2.813,-18.296 -8.421,-25.846c-5.617,-7.549 -12.688,-12.487 -21.2,-14.808l-27.879,-8.129c-13.938,-4.258 -25.175,-11.904 -33.688,-22.942c-8.521,-11.033 -12.775,-23.52 -12.775,-37.458c0,-17.425 6.1,-32.233 18.296,-44.429c12.196,-12.196 27.004,-18.296 44.429,-18.296c12.388,0 23.904,3.483 34.554,10.454c10.646,6.971 18.296,16.263 22.942,27.879l-29.037,12.196c-4.646,-12.387 -14.138,-18.583 -28.459,-18.583c-8.912,-0 -16.262,3.104 -22.071,9.292c-5.808,6.199 -8.712,13.358 -8.712,21.491c-0,15.488 7.55,25.363 22.65,29.617l27.879,8.129c15.871,4.267 28.75,12.979 38.621,26.138c9.871,13.166 14.808,28.266 14.808,45.3c0,13.937 -3.296,26.525 -9.871,37.75c-6.587,11.233 -15.491,20.137 -26.716,26.716c-11.234,6.579 -23.813,9.871 -37.75,9.871c-13.938,0 -26.717,-3.583 -38.334,-10.746c-11.616,-7.162 -20.908,-16.933 -27.879,-29.329l27.884,-15.104Z" style="fill:#8f022c;fill-rule:nonzero;"/><path d="M1554.42,495.671l24.971,-18.588c12.387,18.588 30.391,27.88 54.012,27.88c19.354,-0 34.938,-6.388 46.75,-19.167c11.808,-12.775 17.717,-27.879 17.717,-45.3l-0,-72.596c-17.817,15.879 -38.721,23.813 -62.725,23.813c-26.717,-0 -49.175,-9.092 -67.371,-27.296c-18.204,-18.196 -27.3,-40.654 -27.3,-67.371l-0,-149.263l31.946,0l-0,149.263c-0,17.425 6.292,32.233 18.875,44.429c12.575,12.196 27.196,18.296 43.85,18.296c18.196,-0 33.196,-6.292 45.008,-18.875c11.808,-12.579 17.717,-27.196 17.717,-43.85l-0,-149.263l31.942,0l-0,292.717c-0,26.717 -9.392,49.458 -28.167,68.242c-18.788,18.775 -41.529,28.166 -68.242,28.166c-33.304,-0.004 -59.629,-13.75 -78.983,-41.237Z" style="fill:#8f022c;fill-rule:nonzero;"/><path d="M2137.52,353.379c-25.175,25.946 -55.375,38.913 -90.604,38.913c-34.075,-0 -63.505,-12.388 -88.28,-37.171c-24.783,-24.775 -37.17,-54.204 -37.17,-88.279c-0,-34.846 12.387,-64.467 37.17,-88.863c24.775,-24.392 54.205,-36.587 88.28,-36.587c35.229,-0 65.429,12.979 90.604,38.912l34.846,-32.525l-0,237.542l-34.846,-31.942Zm-90.6,-180.041c-26.334,-0 -48.496,9 -66.5,27.004c-18.004,18.004 -27.004,40.175 -27.004,66.5c-0,26.333 9,48.496 27.004,66.5c18.004,18.004 40.166,27.004 66.5,27.004c25.937,-0 48.004,-9.092 66.208,-27.296c18.196,-18.196 27.296,-40.267 27.296,-66.208c-0,-25.938 -9.1,-48.009 -27.296,-66.209c-18.204,-18.196 -40.275,-27.295 -66.208,-27.295Z" style="fill:#8f022c;fill-rule:nonzero;"/><path d="M493.575,363.429c-52.912,0 -68.471,31.742 0.792,31.742c27.825,-0 53.537,-9.179 74.358,-24.717l-28.562,-19.562c-13.85,7.504 -29.575,12.537 -46.588,12.537Z" style="fill:#8f022c;fill-rule:nonzero;"/><path d="M1229.55,363.429c-52.912,0 -68.475,31.742 0.787,31.742c27.825,-0 53.538,-9.179 74.359,-24.717l-29.488,-19.371c-13.85,7.505 -28.645,12.346 -45.658,12.346Z" style="fill:#8f022c;fill-rule:nonzero;"/><path d="M162.079,178.363c-9.071,-9.071 -19.208,-15.896 -30.391,-20.421c-1.288,-0.55 -2.596,-1.05 -3.917,-1.509c-8.5,-3 -17.608,-4.745 -27.283,-5.241c-1.913,-0.092 -3.846,-0.146 -5.796,-0.146c-21.784,-0 -41.009,6.533 -57.675,19.612c-1.713,1.325 -3.404,2.742 -5.059,4.213l0,-174.871l-31.958,0l0,395.075l31.958,0l0,-149.317c0,-4.783 0.459,-9.362 1.4,-13.741c0.184,-0.884 0.388,-1.767 0.609,-2.63c2.666,-10.541 8.112,-19.908 16.283,-28.074c12.196,-12.196 27.025,-18.305 44.45,-18.305c8.813,0 16.963,1.509 24.433,4.546c7.321,2.942 13.984,7.342 20.017,13.171c3.917,3.792 7.192,7.913 9.842,12.346c5.65,9.421 8.462,20.312 8.462,32.692l0,149.316l31.938,0l-0,-149.316c-0.013,-26.742 -9.117,-49.205 -27.313,-67.4Z" style="fill:#8f022c;fill-rule:nonzero;"/></g></g></svg>