<svg xmlns="http://www.w3.org/2000/svg" width="221.12" height="44.392" viewBox="0 0 221.12 44.392">
  <g id="Group_4781" data-name="Group 4781" transform="translate(-140 -31)">
    <g id="Logo_Czarne" data-name="Logo Czarne" transform="translate(140 31)">
      <g id="Group_4775" data-name="Group 4775" transform="translate(0)">
        <path id="Path_8791" data-name="Path 8791" d="M379.28,158.271l.684,1.947a7.972,7.972,0,0,1-4.236.394,8.129,8.129,0,0,1-4.672-13.3,7.743,7.743,0,0,1,5.585-2.725,8.144,8.144,0,0,1,8.512,9.272l-13.937.027a6.109,6.109,0,0,0,4.859,4.716A5.96,5.96,0,0,0,379.28,158.271Zm-8.14-6.4,11.97-.059a6,6,0,0,0-10.5-3.143A6,6,0,0,0,371.14,151.869Z" transform="translate(-345.269 -135.241)" fill="#83192e"/>
        <path id="Path_8792" data-name="Path 8792" d="M1115.254,158.271l.684,1.947a7.972,7.972,0,0,1-4.235.394,8.129,8.129,0,0,1-4.672-13.3,7.743,7.743,0,0,1,5.585-2.725,8.144,8.144,0,0,1,8.512,9.272l-13.937.027a6.108,6.108,0,0,0,4.859,4.716A5.96,5.96,0,0,0,1115.254,158.271Zm-8.14-6.4,11.97-.059a6,6,0,0,0-10.5-3.143A6,6,0,0,0,1107.114,151.869Z" transform="translate(-1033.763 -135.241)" fill="#83192e"/>
        <path id="Path_8793" data-name="Path 8793" d="M790.753,156.051a2.562,2.562,0,0,0,2.473,1.5,2.688,2.688,0,0,0,2.735-2.735,2.724,2.724,0,0,0-.543-1.667,2.49,2.49,0,0,0-1.367-.955l-1.8-.524a4.231,4.231,0,0,1-2.173-1.48,3.851,3.851,0,0,1-.824-2.417,4.03,4.03,0,0,1,4.047-4.047,3.993,3.993,0,0,1,2.229.674,3.788,3.788,0,0,1,1.48,1.8l-1.873.787a1.775,1.775,0,0,0-1.836-1.2,1.869,1.869,0,0,0-1.424.6,1.967,1.967,0,0,0-.562,1.386,1.816,1.816,0,0,0,1.461,1.911l1.8.524a4.49,4.49,0,0,1,2.492,1.686,4.791,4.791,0,0,1-3.841,7.718,4.621,4.621,0,0,1-2.473-.693,5.133,5.133,0,0,1-1.8-1.892l1.8-.974Z" transform="translate(-738.056 -134.453)" fill="#83192e"/>
        <path id="Path_8794" data-name="Path 8794" d="M1541.374,170.226l1.611-1.2a4.284,4.284,0,0,0,6.5.562,4.161,4.161,0,0,0,1.144-2.922v-4.683a6.076,6.076,0,0,1-10.154-4.571v-9.629h2.061v9.629a3.842,3.842,0,0,0,1.218,2.866,3.94,3.94,0,0,0,2.829,1.18,3.808,3.808,0,0,0,2.9-1.218,4,4,0,0,0,1.144-2.829v-9.629h2.061v18.884a6.2,6.2,0,0,1-6.22,6.22A5.913,5.913,0,0,1,1541.374,170.226Z" transform="translate(-1441.093 -138.249)" fill="#83192e"/>
        <path id="Path_8795" data-name="Path 8795" d="M1935.4,155.068a8.113,8.113,0,0,1-13.938-5.583,7.744,7.744,0,0,1,2.4-5.733,8.056,8.056,0,0,1,11.541.15l2.248-2.1v15.324Zm-5.845-11.615a6.012,6.012,0,1,0,4.271,1.761A5.829,5.829,0,0,0,1929.559,143.453Z" transform="translate(-1797.507 -132.27)" fill="#83192e"/>
        <path id="Path_8796" data-name="Path 8796" d="M450.93,351.7c-3.414,0-4.417,2.048.051,2.048a7.99,7.99,0,0,0,4.8-1.595l-1.843-1.262A6.3,6.3,0,0,1,450.93,351.7Z" transform="translate(-419.088 -328.255)" fill="#83192e"/>
        <path id="Path_8797" data-name="Path 8797" d="M1186.9,351.879c-3.413,0-4.418,2.048.051,2.048a7.993,7.993,0,0,0,4.8-1.595l-1.9-1.25A6.056,6.056,0,0,1,1186.9,351.879Z" transform="translate(-1107.581 -328.434)" fill="#83192e"/>
        <path id="Path_8798" data-name="Path 8798" d="M10.456,11.507A5.881,5.881,0,0,0,8.5,10.189q-.125-.053-.253-.1a6.222,6.222,0,0,0-1.76-.338c-.123-.006-.248-.009-.374-.009A5.857,5.857,0,0,0,2.388,11.01c-.111.085-.22.177-.326.272V0H0V25.487H2.062V15.855a4.209,4.209,0,0,1,.09-.886c.012-.057.025-.114.039-.17a3.876,3.876,0,0,1,1.05-1.811,3.906,3.906,0,0,1,2.868-1.181,4.147,4.147,0,0,1,1.576.293,3.994,3.994,0,0,1,1.291.85,3.872,3.872,0,0,1,.635.8,4.019,4.019,0,0,1,.546,2.109v9.633h2.06V15.855a5.911,5.911,0,0,0-1.762-4.348Z" transform="translate(0)" fill="#83192e"/>
      </g>
    </g>
    <g id="escl_soft_logo" transform="translate(264.22 59.674)">
      <g id="Group_1" data-name="Group 1" transform="translate(0 0)">
        <path id="Path_1" data-name="Path 1" d="M6.511,21.286a4.39,4.39,0,0,0-4.54,4.54,4.425,4.425,0,0,0,4.712,4.539,4.35,4.35,0,0,0,3.749-1.84L8.643,27.494a2.383,2.383,0,0,1-1.926.859,3.031,3.031,0,0,1-1.194-.213,2.047,2.047,0,0,1-.883-.668,2.825,2.825,0,0,1-.549-1.628A2.9,2.9,0,0,1,4.6,24.207a2.245,2.245,0,0,1,.31-.365,2.092,2.092,0,0,1,.942-.487,3.063,3.063,0,0,1,.661-.075,2.086,2.086,0,0,1,2.132,1.737H5.518v1.72h5.257a5.124,5.124,0,0,0,.086-.911A4.346,4.346,0,0,0,6.511,21.286Z" transform="translate(-1.971 -17.803)"/>
        <path id="Path_2" data-name="Path 2" d="M60.415,23.692c0-.464.447-.7,1-.7a1.454,1.454,0,0,1,1.376.877l1.892-1.032a3.622,3.622,0,0,0-3.268-1.823c-1.771,0-3.267.98-3.267,2.734,0,3.027,4.437,2.339,4.437,3.594,0,.5-.482.74-1.187.74a1.638,1.638,0,0,1-1.685-1.118l-1.925,1.083A3.7,3.7,0,0,0,61.4,30.089c1.84,0,3.456-.894,3.456-2.752C64.851,24.174,60.415,24.965,60.415,23.692Z" transform="translate(-48.156 -17.574)"/>
        <path id="Path_3" data-name="Path 3" d="M108.267,27.892a2.347,2.347,0,0,1,0-4.694,2.127,2.127,0,0,1,1.961,1.152l1.909-1.118a4.327,4.327,0,0,0-3.852-2.218,4.54,4.54,0,1,0,3.886,6.844l-1.926-1.1A2.122,2.122,0,0,1,108.267,27.892Z" transform="translate(-86.188 -17.578)"/>
        <path id="Path_4" data-name="Path 4" d="M160.515,21.006a4.492,4.492,0,0,0-4.539,4.54,4.566,4.566,0,1,0,4.539-4.54Zm0,6.913a2.373,2.373,0,1,1,2.339-2.373A2.283,2.283,0,0,1,160.515,27.918Z" transform="translate(-129.408 -17.57)"/>
        <path id="Path_5" data-name="Path 5" d="M217.782,13.367H220V1.093l-2.218.694Z" transform="translate(-180.552 -1.093)"/>
        <path id="Path_6" data-name="Path 6" d="M246.794,21.246V22.26a3.423,3.423,0,0,0-2.8-1.255,4.349,4.349,0,0,0-4.179,4.54,4.35,4.35,0,0,0,4.179,4.54,3.423,3.423,0,0,0,2.8-1.255v1.014h2.218v-8.6ZM244.4,27.97a2.425,2.425,0,1,1,2.39-2.425A2.308,2.308,0,0,1,244.4,27.97Z" transform="translate(-198.783 -17.57)"/>
      </g>
    </g>
    <path id="Path_18075" data-name="Path 18075" d="M-13.76-6.432V-8H-12.7V-.32A3.359,3.359,0,0,1-13.888,2.4a4.267,4.267,0,0,1-2.832.992V2.368a3.1,3.1,0,0,0,2.168-.72A2.527,2.527,0,0,0-13.76-.32V-1.568A3.581,3.581,0,0,1-16.992.192,3.991,3.991,0,0,1-19.92-1.024,4.075,4.075,0,0,1-21.12-4a4.075,4.075,0,0,1,1.2-2.976,3.991,3.991,0,0,1,2.928-1.216A3.581,3.581,0,0,1-13.76-6.432Zm-5.392,4.688a3.045,3.045,0,0,0,2.24.912,3.045,3.045,0,0,0,2.24-.912A3.133,3.133,0,0,0-13.76-4a3.045,3.045,0,0,0-.912-2.24,3.018,3.018,0,0,0-2.24-.928,3.018,3.018,0,0,0-2.24.928A3.045,3.045,0,0,0-20.064-4,3.133,3.133,0,0,0-19.152-1.744ZM-9.408-8v1.328A2.6,2.6,0,0,1-6.88-8.128V-7.1a2.538,2.538,0,0,0-1.84.664,2.648,2.648,0,0,0-.688,1.992V0h-1.056V-8ZM.784-1.008A4.11,4.11,0,0,1-2.192.192a4.1,4.1,0,0,1-2.992-1.2A4.067,4.067,0,0,1-6.4-4,4.014,4.014,0,0,1-5.184-6.976,4.067,4.067,0,0,1-2.192-8.192,4.048,4.048,0,0,1,.784-6.976,3.987,3.987,0,0,1,2.016-4,4.073,4.073,0,0,1,.784-1.008Zm-5.216-.736a3.045,3.045,0,0,0,2.24.912,3.045,3.045,0,0,0,2.24-.912A3.133,3.133,0,0,0,.96-4,3.045,3.045,0,0,0,.048-6.24a3.018,3.018,0,0,0-2.24-.928,3.018,3.018,0,0,0-2.24.928A3.045,3.045,0,0,0-5.344-4,3.133,3.133,0,0,0-4.432-1.744ZM9.408-3.808V-8h1.056V0H9.408V-1.248A2.958,2.958,0,0,1,6.72.192,3.015,3.015,0,0,1,4.432-.7a3.32,3.32,0,0,1-.848-2.392V-8H4.64v4.912a2.306,2.306,0,0,0,.568,1.664,2.124,2.124,0,0,0,1.608.592,2.457,2.457,0,0,0,1.9-.752A3.168,3.168,0,0,0,9.408-3.808Zm7.584-4.384A3.939,3.939,0,0,1,19.9-6.976,4.048,4.048,0,0,1,21.12-4,4.048,4.048,0,0,1,19.9-1.024,3.939,3.939,0,0,1,16.992.192a3.581,3.581,0,0,1-3.232-1.76V3.2H12.7V-8H13.76v1.568A3.581,3.581,0,0,1,16.992-8.192Zm-2.32,6.448a3.045,3.045,0,0,0,2.24.912,3.045,3.045,0,0,0,2.24-.912A3.133,3.133,0,0,0,20.064-4a3.045,3.045,0,0,0-.912-2.24,3.018,3.018,0,0,0-2.24-.928,3.018,3.018,0,0,0-2.24.928A3.045,3.045,0,0,0,13.76-4,3.133,3.133,0,0,0,14.672-1.744Z" transform="translate(340 72)" fill="#1e1e1e"/>
  </g>
</svg>
